/vscmnt/brussel_pixiu_data/_data_brussel/112/vsc11236/PredSimResults/SUBJ06mtu3D/weighted-LRposFixed/trackIG/worker_05.mot
version=1
nRows=11
nColumns=50
inDegrees=yes
endheader
                time	         pelvis_tilt	         pelvis_list	     pelvis_rotation	           pelvis_tx	           pelvis_ty	           pelvis_tz	       hip_flexion_r	     hip_adduction_r	      hip_rotation_r	        knee_angle_r	       ankle_angle_r	         mtp_angle_r	       hip_flexion_l	     hip_adduction_l	      hip_rotation_l	        knee_angle_l	       ankle_angle_l	         mtp_angle_l	    lumbar_extension	      lumbar_bending	     lumbar_rotation	 ercspn_r/activation	 intobl_r/activation	 extobl_r/activation	    abd_r/activation	    add_r/activation	hamstrings_r/activation	bifemsh_r/activation	glut_max_r/activation	iliopsoas_r/activation	rect_fem_r/activation	  vasti_r/activation	gastroc_r/activation	 soleus_r/activation	tib_ant_r/activation	 ercspn_l/activation	 intobl_l/activation	 extobl_l/activation	    abd_l/activation	    add_l/activation	hamstrings_l/activation	bifemsh_l/activation	glut_max_l/activation	iliopsoas_l/activation	rect_fem_l/activation	  vasti_l/activation	gastroc_l/activation	 soleus_l/activation	tib_ant_l/activation	
          0.00000000	         -7.41099057	         -4.84066712	         11.04788676	          0.00000000	          0.93118902	         -0.02081554	         28.74378383	          0.38207985	         -6.08839919	          0.15953968	          5.82810941	          0.22601592	         -8.72805272	         -4.77931525	         10.08725502	         -7.59679680	         10.44911139	         29.33068336	         -1.40710228	          2.55578086	         -2.58953293	          0.08488223	          0.15157088	          0.02291560	          0.00999999	          0.13742602	          0.06248842	          0.17210998	          0.02608254	          0.08624669	          0.01000000	          0.00999999	          0.01337100	          0.00999999	          0.27101870	          0.06890720	          0.00999999	          0.00999999	          0.06777253	          0.02267160	          0.01549955	          0.12894486	          0.07540964	          0.43326066	          0.00999999	          0.00999999	          0.34901534	          0.34307830	          0.01305770	
          0.01382172	         -7.53488686	         -4.75654830	         11.05119941	          0.01694327	          0.92899074	         -0.02000536	         28.79892781	          0.54041106	         -5.68808664	         -1.47055140	          5.39925782	          0.19579308	         -9.09819543	         -4.76928557	          9.55080940	         -8.63532650	          9.88518097	         31.12469598	         -1.08319084	          2.86244089	         -2.75483511	          0.06898964	          0.14673368	          0.01862509	          0.00999999	          0.12445252	          0.06121483	          0.13988564	          0.05800791	          0.07009863	          0.00999999	          0.00999999	          0.01862513	          0.01507953	          0.30465742	          0.08300775	          0.00999999	          0.00999999	          0.05508341	          0.04278263	          0.01356804	          0.10480237	          0.06129061	          0.40567994	          0.00999999	          0.00999999	          0.32359765	          0.32515861	          0.01061289	
          0.02764344	         -7.63729585	         -4.66209194	         10.98724715	          0.03428657	          0.92714423	         -0.01909862	         28.63250498	          0.69948419	         -5.31604161	         -2.77618777	          4.80119489	          0.19016073	         -9.35374213	         -4.72764844	          8.97946909	         -9.95943832	          9.14138837	         32.98617937	         -0.74601773	          3.17306325	         -2.89766286	          0.07204535	          0.11926058	          0.01513789	          0.05482247	          0.10577066	          0.06206416	          0.11369470	          0.08336751	          0.05697399	          0.00999999	          0.00999999	          0.01513793	          0.01225617	          0.35016219	          0.09605404	          0.00999999	          0.00999999	          0.04477008	          0.03477240	          0.01655141	          0.08518011	          0.04981510	          0.38221490	          0.01000000	          0.01000000	          0.29490386	          0.30007836	          0.00999999	
          0.04146516	         -7.71945524	         -4.55038195	         10.85901001	          0.05177155	          0.92587448	         -0.01808602	         28.31087509	          0.87301007	         -5.00729314	         -3.84173892	          4.15737699	          0.16000516	         -9.41907449	         -4.63988828	          8.38169259	        -11.65597689	          8.15656215	         34.90120547	         -0.42183205	          3.47962267	         -3.01312236	          0.07801078	          0.09693129	          0.01230361	          0.09957117	          0.12245814	          0.05985883	          0.09240752	          0.11275870	          0.04630668	          0.00999999	          0.00999999	          0.01230364	          0.00999999	          0.38235795	          0.12514809	          0.00999999	          0.00999999	          0.03638773	          0.04433167	          0.02248087	          0.06923175	          0.04048817	          0.37270411	          0.01000003	          0.01513789	          0.24487718	          0.26850839	          0.00999999	
          0.05528688	         -7.78037608	         -4.42377752	         10.67002207	          0.06920566	          0.92532163	         -0.01699324	         27.89351116	          1.05721466	         -4.75368210	         -4.82126614	          3.74671322	          0.13544851	         -9.23893891	         -4.50280153	          7.74989542	        -13.78984470	          6.91158103	         36.77991137	         -0.12438249	          3.78660187	         -3.09525364	          0.07402589	          0.07878274	          0.00999999	          0.13241830	          0.13396729	          0.05860460	          0.07510596	          0.12957579	          0.03763663	          0.00999999	          0.01811808	          0.01000002	          0.01000002	          0.39486415	          0.14621070	          0.00999999	          0.00999999	          0.02957482	          0.06656957	          0.02914753	          0.05626941	          0.03290752	          0.35049627	          0.01000000	          0.01230361	          0.19902856	          0.21823527	          0.00999999	
          0.06910860	         -7.82016246	         -4.28527166	         10.42305772	          0.08638663	          0.92554575	         -0.01585645	         27.40184903	          1.24573180	         -4.54204970	         -5.71127296	          3.50526202	          0.11618788	         -8.75541848	         -4.31540015	          7.07024624	        -16.43628062	          5.44464903	         38.42002470	          0.13071491	          4.10068722	         -3.13944871	          0.06466760	          0.06403216	          0.00999999	          0.14469309	          0.11289360	          0.05914085	          0.06104379	          0.12567506	          0.03058989	          0.00999999	          0.09227016	          0.00999999	          0.00999999	          0.39907170	          0.15604253	          0.00999999	          0.00999999	          0.02403749	          0.09369161	          0.04249068	          0.04573403	          0.02674621	          0.31326250	          0.00999999	          0.00999999	          0.16176423	          0.17737485	          0.00999999	
          0.08293032	         -7.84030642	         -4.12881742	         10.12240394	          0.10315884	          0.92655428	         -0.01471979	         26.80483747	          1.42953628	         -4.33643200	         -6.42715830	          3.40144420	          0.09865680	         -7.94203146	         -4.07651667	          6.32245080	        -19.61357660	          3.84417755	         39.44863663	          0.32968278	          4.41827117	         -3.14414739	          0.05711765	          0.05204335	          0.00999999	          0.14616030	          0.09175641	          0.05829306	          0.04961450	          0.11639972	          0.02486251	          0.00999999	          0.13996505	          0.00999999	          0.00999999	          0.38975992	          0.16045736	          0.00999999	          0.00999999	          0.01953693	          0.11280751	          0.04164120	          0.04845758	          0.02173849	          0.26685862	          0.00999999	          0.00999999	          0.13147694	          0.14416476	          0.00999999	
          0.09675204	         -7.84152418	         -3.94085920	          9.77286617	          0.11947159	          0.92827284	         -0.01360834	         26.07533393	          1.59392011	         -4.10408001	         -6.92357643	          3.45142314	          0.08838367	         -6.81561308	         -3.79165659	          5.49647163	        -23.28429436	          2.24309305	         39.42589447	          0.46713236	          4.72328568	         -3.11050507	          0.04642345	          0.04229922	          0.00999999	          0.13898898	          0.07457676	          0.05542991	          0.04032512	          0.10547609	          0.02020747	          0.00999999	          0.15848961	          0.00999999	          0.00999999	          0.37223824	          0.16565863	          0.00999999	          0.00999999	          0.01587901	          0.12261658	          0.03384467	          0.05238824	          0.01766837	          0.21689440	          0.00999999	          0.00999999	          0.10686037	          0.11717264	          0.00999999	
          0.11057377	         -7.82381919	         -3.70754153	          9.37683991	          0.13535127	          0.93057043	         -0.01252568	         25.20532473	          1.72279062	         -3.82724374	         -7.18401861	          3.59865121	          0.08640466	         -5.43034264	         -3.47043919	          4.61616357	        -27.30708185	          0.50165514	         38.46591827	          0.54507850	          4.99565336	         -3.04005642	          0.03773154	          0.03437949	          0.00999999	          0.12880678	          0.06061367	          0.05341243	          0.03277501	          0.09760376	          0.01642401	          0.00999999	          0.15611982	          0.00999999	          0.00999999	          0.35199221	          0.16886830	          0.00999999	          0.00999999	          0.01290596	          0.13101428	          0.02750790	          0.06420979	          0.01436030	          0.17628502	          0.00999999	          0.00999999	          0.08685279	          0.09523428	          0.00999999	
          0.12439549	         -7.78712281	         -3.41484996	          8.93525756	          0.15084529	          0.93328488	         -0.01147016	         24.20760067	          1.79717467	         -3.49968548	         -7.23208737	          3.79838001	          0.09054022	         -3.85520567	         -3.11488087	          3.71584575	        -31.49672725	         -1.53424781	         36.77025447	          0.56791214	          5.21473211	         -2.93402944	          0.03066702	          0.02794258	          0.00999999	          0.12066695	          0.04926491	          0.05073917	          0.02663851	          0.09133558	          0.01334892	          0.00999999	          0.14281792	          0.00999999	          0.00999999	          0.32953822	          0.17048403	          0.00999999	          0.00999999	          0.01048956	          0.14076881	          0.02235757	          0.07514183	          0.01167161	          0.14327899	          0.00999999	          0.00999999	          0.07059124	          0.07740346	          0.01022186	
          0.13821721	         -7.73132007	         -3.05309861	          8.44843533	          0.16598482	          0.93625312	         -0.01044244	         23.11166125	          1.80135172	         -3.10890559	         -7.12162399	          4.03186955	          0.10007207	         -2.15275120	         -2.71955755	          2.83174413	        -35.71915239	         -3.72404040	         34.16063741	          0.53880247	          5.36575989	         -2.79421242	          0.02492520	          0.02271086	          0.00999999	          0.11939511	          0.04004098	          0.04389104	          0.02165095	          0.07423472	          0.01084959	          0.00999999	          0.11856505	          0.00999999	          0.00999999	          0.30744410	          0.17482033	          0.00999999	          0.03912976	          0.00999999	          0.14161122	          0.01817153	          0.06107294	          0.00999999	          0.11645271	          0.00999999	          0.00999999	          0.05737437	          0.06291113	          0.05978095	
